<svg id="Capa_1" data-name="Capa 1" xmlns="http://www.w3.org/2000/svg" viewBox="0 0 913.19 768"><defs><style>.cls-1{fill:#fff;}</style></defs><title>Logo</title><path d="M473,157c5.37,0.76,10.74,1.55,16.11,2.27,52.88,7.1,96.61,30.27,129.25,73.2,3.35,4.41,4.06,7.58-.07,11.8-9.55,9.75-18.4,20.2-28.27,29.6-9.45,9-17.45,9.8-28.57,2.87-10.71-6.68-20.71-14.51-31-21.88C512.19,241.74,492,233,469.4,233.21c-26.21.27-54.22,8.11-70,38.57-5.26,10.18-5.78,20.21-1,30.63,6.7,14.73,16.16,27,31.72,32.92,23.27,8.93,46.78,17.22,70.06,26.1,36.77,14,72.74,29.81,104.71,53.21,21.81,16,37.27,36.71,42.67,63.64,7.25,36.17-1.81,68.63-24.31,97.43-20.49,26.24-48.5,41-79.53,50.89a211,211,0,0,1-73.78,9.88c-54.31-2.46-102.85-20-143.44-57.06a170.25,170.25,0,0,1-17.09-18.17c-6.44-7.91-7.23-14.43-1-22.28a300,300,0,0,1,29.08-32.09c8.4-7.94,17.52-7.62,26.77-.39,7.45,5.83,14,12.81,21.13,19.05,29,25.28,62.59,37.41,101.06,34.65,17.91-1.28,35.1-6.11,50.61-15.45,15.12-9.1,24.88-22.21,25.81-40.31,0.61-12-4-22.44-12.31-31.16-10.55-11-24.24-16.93-38-22.5-34.34-14-68.94-27.33-103.25-41.38-23.14-9.47-45.85-20-65.35-36.05-22.33-18.37-35.75-42-38.58-70.88-4.65-47.55,15.19-84,52.56-111.8,24-17.84,51.32-27.77,81-31.4,5.37-.66,10.72-1.51,16.08-2.28h18Z" transform="translate(-83 -157)"/><path d="M83,769c3.21-5,5.79-10.53,9.76-14.79,8.3-8.9,17.37-9.79,27.3-2.76,7.45,5.28,14.24,11.5,21.31,17.33,64.17,53,137,87.83,218.8,103.12a519.29,519.29,0,0,0,70.17,8.28q186.58,9,336.21-103.34c62.39-46.82,109.32-106.3,140.2-178.22,2.87-6.67,7.14-12.76,10.93-19,2.13-3.52,4.62-6.82,6.92-10.17,8.31,4.38,8.61,5,6,13.13-23.47,74.33-61.3,140-117.27,194.79-34.57,33.82-74.19,60.63-116.58,83.58C647.73,887.5,595.94,906.68,541,916.25c-23,4-46.51,5.14-69.79,7.62A47.88,47.88,0,0,0,466,925H437a29,29,0,0,0-4.68-1.09c-6.63-.46-13.27-0.74-19.9-1.14-25.89-1.56-51.4-5.76-76.76-11.1Q206.31,884.43,106.33,798c-8.8-7.65-19-14.26-23.33-26Q83,770.5,83,769Z" transform="translate(-83 -157)"/><path class="cls-1" d="M83,772c4.36,11.72,14.52,18.33,23.33,26q99.83,86.71,229.34,113.69c25.35,5.34,50.86,9.54,76.76,11.1,6.63,0.4,13.27.68,19.9,1.14A29,29,0,0,1,437,925H83V772Z" transform="translate(-83 -157)"/><path d="M873.18,484.68c-1.32-4.77-2.6-8.85-3.49-13a4.36,4.36,0,0,1,1.39-3.37c12.45-11.28,24.5-23.08,37.65-33.49,14.43-11.43,19.06-10.88,34,0,20.66,15,37.74,33.57,53.5,54.93-9.1-4.38-17.33-8.4-25.61-12.32-12.18-5.77-24.56-10.84-38.07-12.85-18-2.69-33.83,2.43-48.52,12.32C880.46,479.2,877.11,481.81,873.18,484.68Z" transform="translate(-83 -157)"/></svg>